<mxfile host="app.diagrams.net" agent="Mozilla/5.0 (X11; Linux x86_64) AppleWebKit/537.36 (KHTML, like Gecko) Chrome/133.0.0.0 Safari/537.36" version="27.2.0">
  <diagram name="Page-1" id="q4QBeAObdrzadpR6eTxB">
    <mxGraphModel dx="787" dy="839" grid="1" gridSize="10" guides="1" tooltips="1" connect="1" arrows="1" fold="1" page="1" pageScale="1" pageWidth="827" pageHeight="1169" math="0" shadow="0">
      <root>
        <mxCell id="0" />
        <mxCell id="1" parent="0" />
        <mxCell id="U2JvRUZkAiTadMJRMzpV-29" value="" style="edgeStyle=orthogonalEdgeStyle;rounded=0;orthogonalLoop=1;jettySize=auto;html=1;strokeColor=#DDA15E;fontColor=#FEFAE0;fillColor=#BC6C25;" edge="1" parent="1" source="U2JvRUZkAiTadMJRMzpV-2" target="U2JvRUZkAiTadMJRMzpV-18">
          <mxGeometry relative="1" as="geometry" />
        </mxCell>
        <mxCell id="U2JvRUZkAiTadMJRMzpV-2" value="&lt;font style=&quot;font-size: 18px; color: light-dark(rgb(26, 64, 255), rgb(0, 0, 0));&quot;&gt;&lt;b&gt;Start&lt;/b&gt;&lt;/font&gt;" style="rounded=1;whiteSpace=wrap;html=1;labelBackgroundColor=none;fillColor=#BC6C25;strokeColor=#DDA15E;fontColor=#FEFAE0;" vertex="1" parent="1">
          <mxGeometry x="265" y="100" width="75" height="40" as="geometry" />
        </mxCell>
        <mxCell id="U2JvRUZkAiTadMJRMzpV-28" value="" style="edgeStyle=orthogonalEdgeStyle;rounded=0;orthogonalLoop=1;jettySize=auto;html=1;strokeColor=#DDA15E;fontColor=#FEFAE0;fillColor=#BC6C25;" edge="1" parent="1" source="U2JvRUZkAiTadMJRMzpV-4" target="U2JvRUZkAiTadMJRMzpV-10">
          <mxGeometry relative="1" as="geometry" />
        </mxCell>
        <mxCell id="U2JvRUZkAiTadMJRMzpV-4" value="&lt;b style=&quot;color: rgb(0, 0, 0); font-size: 18px;&quot;&gt;Print coin&lt;/b&gt;" style="shape=parallelogram;perimeter=parallelogramPerimeter;whiteSpace=wrap;html=1;fixedSize=1;labelBackgroundColor=none;fillColor=#BC6C25;strokeColor=#DDA15E;fontColor=#FEFAE0;" vertex="1" parent="1">
          <mxGeometry x="159.5" y="400" width="285" height="40" as="geometry" />
        </mxCell>
        <mxCell id="U2JvRUZkAiTadMJRMzpV-30" style="edgeStyle=orthogonalEdgeStyle;rounded=0;orthogonalLoop=1;jettySize=auto;html=1;strokeColor=#DDA15E;fontColor=#FEFAE0;fillColor=#BC6C25;" edge="1" parent="1" source="U2JvRUZkAiTadMJRMzpV-6">
          <mxGeometry relative="1" as="geometry">
            <mxPoint x="670" y="520" as="targetPoint" />
          </mxGeometry>
        </mxCell>
        <mxCell id="U2JvRUZkAiTadMJRMzpV-6" value="&lt;b style=&quot;color: rgb(0, 0, 0); font-size: 18px;&quot;&gt;tail++&lt;/b&gt;" style="rounded=0;whiteSpace=wrap;html=1;strokeColor=#DDA15E;fontColor=#FEFAE0;fillColor=#BC6C25;labelBackgroundColor=none;" vertex="1" parent="1">
          <mxGeometry x="160" y="620" width="285" height="40" as="geometry" />
        </mxCell>
        <mxCell id="U2JvRUZkAiTadMJRMzpV-7" value="" style="edgeStyle=orthogonalEdgeStyle;rounded=0;orthogonalLoop=1;jettySize=auto;html=1;strokeColor=#DDA15E;fontColor=default;fillColor=#BC6C25;labelBackgroundColor=none;" edge="1" parent="1" source="U2JvRUZkAiTadMJRMzpV-10" target="U2JvRUZkAiTadMJRMzpV-6">
          <mxGeometry relative="1" as="geometry" />
        </mxCell>
        <mxCell id="U2JvRUZkAiTadMJRMzpV-8" style="edgeStyle=orthogonalEdgeStyle;rounded=0;orthogonalLoop=1;jettySize=auto;html=1;entryX=1;entryY=0.5;entryDx=0;entryDy=0;exitX=1;exitY=0.5;exitDx=0;exitDy=0;labelBackgroundColor=none;strokeColor=#DDA15E;fontColor=default;" edge="1" parent="1" source="U2JvRUZkAiTadMJRMzpV-24" target="U2JvRUZkAiTadMJRMzpV-18">
          <mxGeometry relative="1" as="geometry">
            <mxPoint x="468" y="850" as="targetPoint" />
            <Array as="points">
              <mxPoint x="668" y="520" />
              <mxPoint x="668" y="230" />
            </Array>
            <mxPoint x="582" y="519.9999999999998" as="sourcePoint" />
          </mxGeometry>
        </mxCell>
        <mxCell id="U2JvRUZkAiTadMJRMzpV-9" value="" style="edgeStyle=orthogonalEdgeStyle;rounded=0;orthogonalLoop=1;jettySize=auto;html=1;labelBackgroundColor=none;strokeColor=#DDA15E;fontColor=default;entryX=0;entryY=0.5;entryDx=0;entryDy=0;" edge="1" parent="1" source="U2JvRUZkAiTadMJRMzpV-10" target="U2JvRUZkAiTadMJRMzpV-24">
          <mxGeometry relative="1" as="geometry">
            <mxPoint x="442" y="519.9999999999998" as="targetPoint" />
          </mxGeometry>
        </mxCell>
        <mxCell id="U2JvRUZkAiTadMJRMzpV-10" value="&lt;b style=&quot;color: rgb(0, 0, 0); font-size: 18px;&quot;&gt;if coin==1&lt;/b&gt;" style="rhombus;whiteSpace=wrap;html=1;strokeColor=#DDA15E;fontColor=#FEFAE0;fillColor=#BC6C25;labelBackgroundColor=none;" vertex="1" parent="1">
          <mxGeometry x="252" y="470" width="100" height="100" as="geometry" />
        </mxCell>
        <mxCell id="U2JvRUZkAiTadMJRMzpV-11" value="" style="edgeStyle=orthogonalEdgeStyle;rounded=0;orthogonalLoop=1;jettySize=auto;html=1;strokeColor=#DDA15E;fontColor=default;fillColor=#BC6C25;labelBackgroundColor=none;" edge="1" parent="1" source="U2JvRUZkAiTadMJRMzpV-12" target="U2JvRUZkAiTadMJRMzpV-13">
          <mxGeometry relative="1" as="geometry" />
        </mxCell>
        <mxCell id="U2JvRUZkAiTadMJRMzpV-12" value="&lt;b style=&quot;color: rgb(0, 0, 0); font-size: 18px;&quot;&gt;Print head, tail, probab&lt;/b&gt;" style="shape=parallelogram;perimeter=parallelogramPerimeter;whiteSpace=wrap;html=1;fixedSize=1;labelBackgroundColor=none;fillColor=#BC6C25;strokeColor=#DDA15E;fontColor=#FEFAE0;" vertex="1" parent="1">
          <mxGeometry x="160" y="700" width="285" height="40" as="geometry" />
        </mxCell>
        <mxCell id="U2JvRUZkAiTadMJRMzpV-13" value="&lt;font style=&quot;font-size: 18px; color: light-dark(rgb(26, 64, 255), rgb(0, 0, 0));&quot;&gt;&lt;b&gt;Stop&lt;/b&gt;&lt;/font&gt;" style="rounded=1;whiteSpace=wrap;html=1;labelBackgroundColor=none;fillColor=#BC6C25;strokeColor=#DDA15E;fontColor=#FEFAE0;" vertex="1" parent="1">
          <mxGeometry x="265" y="780" width="75" height="40" as="geometry" />
        </mxCell>
        <mxCell id="U2JvRUZkAiTadMJRMzpV-14" value="NO" style="text;html=1;align=center;verticalAlign=middle;resizable=0;points=[];autosize=1;strokeColor=none;fillColor=none;labelBackgroundColor=none;fontColor=#FEFAE0;" vertex="1" parent="1">
          <mxGeometry x="299" y="578" width="40" height="30" as="geometry" />
        </mxCell>
        <mxCell id="U2JvRUZkAiTadMJRMzpV-15" value="YES" style="text;html=1;align=center;verticalAlign=middle;resizable=0;points=[];autosize=1;strokeColor=none;fillColor=none;labelBackgroundColor=none;fontColor=#FEFAE0;" vertex="1" parent="1">
          <mxGeometry x="378" y="490" width="50" height="30" as="geometry" />
        </mxCell>
        <mxCell id="U2JvRUZkAiTadMJRMzpV-21" style="edgeStyle=orthogonalEdgeStyle;rounded=0;orthogonalLoop=1;jettySize=auto;html=1;entryX=0.5;entryY=0;entryDx=0;entryDy=0;strokeColor=#DDA15E;fontColor=#FEFAE0;fillColor=#BC6C25;" edge="1" parent="1" source="U2JvRUZkAiTadMJRMzpV-17" target="U2JvRUZkAiTadMJRMzpV-4">
          <mxGeometry relative="1" as="geometry" />
        </mxCell>
        <mxCell id="U2JvRUZkAiTadMJRMzpV-17" value="&lt;b style=&quot;color: rgb(0, 0, 0); font-size: 18px;&quot;&gt;coin = rand() % Limit&lt;/b&gt;" style="rounded=0;whiteSpace=wrap;html=1;strokeColor=#DDA15E;fontColor=#FEFAE0;fillColor=#BC6C25;labelBackgroundColor=none;" vertex="1" parent="1">
          <mxGeometry x="160" y="320" width="285" height="40" as="geometry" />
        </mxCell>
        <mxCell id="U2JvRUZkAiTadMJRMzpV-23" value="" style="edgeStyle=orthogonalEdgeStyle;rounded=0;orthogonalLoop=1;jettySize=auto;html=1;strokeColor=#DDA15E;fontColor=#FEFAE0;fillColor=#BC6C25;" edge="1" parent="1" source="U2JvRUZkAiTadMJRMzpV-18" target="U2JvRUZkAiTadMJRMzpV-17">
          <mxGeometry relative="1" as="geometry" />
        </mxCell>
        <mxCell id="U2JvRUZkAiTadMJRMzpV-31" style="edgeStyle=orthogonalEdgeStyle;rounded=0;orthogonalLoop=1;jettySize=auto;html=1;strokeColor=#DDA15E;fontColor=#FEFAE0;fillColor=#BC6C25;" edge="1" parent="1" source="U2JvRUZkAiTadMJRMzpV-18" target="U2JvRUZkAiTadMJRMzpV-12">
          <mxGeometry relative="1" as="geometry">
            <mxPoint x="120" y="720" as="targetPoint" />
            <Array as="points">
              <mxPoint x="120" y="230" />
              <mxPoint x="120" y="720" />
            </Array>
          </mxGeometry>
        </mxCell>
        <mxCell id="U2JvRUZkAiTadMJRMzpV-18" value="&lt;b style=&quot;color: rgb(0, 0, 0); font-size: 18px;&quot;&gt;i = 0&lt;/b&gt;" style="rhombus;whiteSpace=wrap;html=1;strokeColor=#DDA15E;fontColor=#FEFAE0;fillColor=#BC6C25;labelBackgroundColor=none;" vertex="1" parent="1">
          <mxGeometry x="252.5" y="180" width="100" height="100" as="geometry" />
        </mxCell>
        <mxCell id="U2JvRUZkAiTadMJRMzpV-24" value="&lt;b style=&quot;color: rgb(0, 0, 0); font-size: 18px;&quot;&gt;head++&lt;/b&gt;" style="rounded=0;whiteSpace=wrap;html=1;strokeColor=#DDA15E;fontColor=#FEFAE0;fillColor=#BC6C25;labelBackgroundColor=none;" vertex="1" parent="1">
          <mxGeometry x="445" y="500" width="130" height="40" as="geometry" />
        </mxCell>
        <mxCell id="U2JvRUZkAiTadMJRMzpV-33" value="i &amp;lt; N" style="text;html=1;align=center;verticalAlign=middle;resizable=0;points=[];autosize=1;strokeColor=none;fillColor=none;fontColor=#FEFAE0;" vertex="1" parent="1">
          <mxGeometry x="470" y="200" width="50" height="30" as="geometry" />
        </mxCell>
        <mxCell id="U2JvRUZkAiTadMJRMzpV-34" value="!(i &amp;lt; N)" style="text;html=1;align=center;verticalAlign=middle;resizable=0;points=[];autosize=1;strokeColor=none;fillColor=none;fontColor=#FEFAE0;" vertex="1" parent="1">
          <mxGeometry x="145" y="200" width="60" height="30" as="geometry" />
        </mxCell>
      </root>
    </mxGraphModel>
  </diagram>
</mxfile>
